<?xml version="1.0" standalone="no"?>
<!DOCTYPE svg PUBLIC "-//W3C//DTD SVG 20010904//EN"
 "http://www.w3.org/TR/2001/REC-SVG-20010904/DTD/svg10.dtd">
<svg version="1.0" xmlns="http://www.w3.org/2000/svg"
 width="168.000000pt" height="31.000000pt" viewBox="0 0 168.000000 31.000000"
 preserveAspectRatio="xMidYMid meet">

<g transform="translate(0.000000,31.000000) scale(0.100000,-0.100000)"
fill="#000000" stroke="none">
<path d="M125 291 c-67 -29 -75 -89 -22 -152 21 -23 37 -52 37 -65 0 -53 -75
-60 -99 -9 l-15 30 -8 -30 c-12 -46 -4 -55 51 -55 39 0 56 6 80 26 43 36 42
77 -4 137 -38 49 -44 77 -20 97 20 17 66 4 72 -20 3 -11 9 -20 13 -20 8 0 21
52 15 58 -8 9 -82 11 -100 3z"/>
<path d="M760 261 c0 -25 4 -31 20 -31 17 0 20 5 17 28 -5 40 -37 43 -37 3z"/>
<path d="M583 256 c-27 -23 -28 -28 -31 -135 l-4 -111 31 0 31 0 0 70 c0 63 2
70 20 70 13 0 20 7 20 20 0 13 -7 20 -20 20 -11 0 -20 6 -20 14 0 7 9 16 20
19 14 3 20 14 20 31 0 34 -29 35 -67 2z"/>
<path d="M687 274 c-4 -4 -7 -16 -7 -26 0 -14 6 -19 23 -16 14 2 22 10 22 23
0 20 -25 32 -38 19z"/>
<path d="M818 264 c6 -3 12 -10 12 -15 0 -6 -4 -7 -10 -4 -5 3 -10 1 -10 -4 0
-6 9 -11 21 -11 27 0 22 34 -6 37 -11 2 -14 0 -7 -3z"/>
<path d="M861 248 c1 -18 2 -19 6 -5 2 9 9 15 14 12 5 -4 9 -1 9 4 0 6 -7 11
-15 11 -9 0 -15 -9 -14 -22z"/>
<path d="M904 259 c-10 -17 6 -27 41 -27 27 0 35 4 35 18 0 14 -8 18 -35 18
-19 0 -38 -4 -41 -9z m36 -9 c0 -5 -7 -10 -16 -10 -8 0 -12 5 -9 10 3 6 10 10
16 10 5 0 9 -4 9 -10z"/>
<path d="M845 191 c-11 -5 -35 -6 -52 -3 l-33 5 0 -92 0 -91 30 0 30 0 0 64
c0 56 3 66 20 71 33 10 40 -3 40 -71 l0 -64 30 0 30 0 0 75 c0 62 -4 79 -20
95 -21 21 -42 24 -75 11z"/>
<path d="M1002 192 c-13 -4 -23 -10 -23 -14 1 -5 1 -13 1 -19 0 -7 11 -9 29
-6 16 4 36 1 46 -7 16 -12 14 -14 -23 -19 -47 -8 -72 -29 -72 -61 0 -39 28
-54 98 -53 l62 0 0 77 c0 55 -4 81 -14 89 -18 15 -74 22 -104 13z m66 -119
c-2 -10 -12 -18 -23 -18 -11 0 -21 8 -23 18 -3 13 3 17 23 17 20 0 26 -4 23
-17z"/>
<path d="M1241 191 c-8 -5 -29 -7 -48 -4 l-33 6 0 -92 c0 -90 0 -91 25 -91 24
0 25 2 25 64 0 56 3 66 20 71 33 10 40 -3 40 -71 l0 -64 30 0 30 0 0 75 c0 62
-4 79 -20 95 -21 21 -46 25 -69 11z"/>
<path d="M1560 191 c-36 -10 -32 -36 5 -37 48 -2 55 -4 55 -13 0 -4 -16 -11
-36 -14 -48 -8 -64 -23 -64 -63 0 -43 18 -52 98 -52 l62 0 0 68 c0 50 -5 73
-17 89 -20 23 -65 33 -103 22z m60 -116 c0 -9 -7 -18 -16 -22 -18 -7 -39 11
-30 26 11 17 46 13 46 -4z"/>
<path d="M253 163 c-65 -62 -68 -145 -6 -151 32 -3 73 24 73 49 0 6 -7 3 -16
-6 -9 -9 -23 -15 -32 -13 -30 6 -23 27 17 48 75 38 91 100 26 100 -22 0 -42
-9 -62 -27z m64 0 c5 -14 -53 -80 -62 -71 -3 3 3 25 15 48 20 39 39 48 47 23z"/>
<path d="M393 174 c-13 -9 -23 -21 -23 -26 0 -6 7 -5 15 2 26 21 29 3 12 -60
-22 -77 -21 -82 5 -78 14 2 25 15 35 43 17 50 50 85 80 85 18 0 23 5 23 25 0
34 -32 33 -59 -2 l-21 -26 2 24 c2 19 -2 24 -22 26 -14 1 -35 -5 -47 -13z"/>
<path d="M680 100 c0 -89 0 -90 25 -90 25 0 25 1 25 90 0 89 0 90 -25 90 -25
0 -25 -1 -25 -90z"/>
<path d="M1357 170 c4 -14 14 -20 34 -20 16 0 29 -2 29 -4 0 -3 -16 -32 -35
-65 -19 -32 -35 -62 -35 -65 0 -3 34 -6 75 -6 73 0 75 1 75 24 0 21 -5 25 -34
28 l-34 3 34 58 c19 32 34 60 34 62 0 3 -33 5 -74 5 -69 0 -74 -1 -69 -20z"/>
</g>
</svg>
